<svg width="113" height="120" viewBox="0 0 113 120" fill="none" xmlns="http://www.w3.org/2000/svg">
<g filter="url(#filter0_d_709_7034)">
<mask id="path-1-inside-1_709_7034" fill="white">
<path fill-rule="evenodd" clip-rule="evenodd" d="M78.3205 53.7108C77.6606 52.1667 77.2149 49.2941 77.4354 48.1923C77.6575 47.0921 78.9803 47.9704 79.4229 46.6514C79.8654 45.3229 75.6684 45.3229 76.9929 43.5569C78.3205 41.794 78.3205 43.5569 80.0843 43.5569C81.8545 43.5569 82.5127 44.4415 82.5127 45.5448C82.5127 46.6514 84.2845 47.3109 84.2845 47.3109C84.2845 47.3109 87.1523 47.0921 88.4815 47.0921C89.8075 47.0921 91.1288 47.0921 91.1288 47.9719C91.1288 48.8565 89.5854 51.7275 88.2594 51.7275C86.9334 51.7275 86.9334 55.4784 88.0405 55.6956C89.1429 55.9191 90.0248 52.8293 90.6862 52.8293C91.1634 52.8293 91.5272 56.3331 92.1776 59.9438C92.3493 59.7408 92.5288 59.5944 92.7162 59.5944C93.5903 59.5944 93.1525 56.5392 93.7367 55.6641C94.3178 54.7905 94.0281 52.0297 94.4659 52.0297C94.9005 52.0297 97.5211 52.9017 97.3762 52.1761C97.2298 51.4473 98.9779 48.973 98.6865 47.665C98.392 46.3586 99.7054 44.7547 99.7054 43.1571C99.7054 41.5563 101.161 41.1187 102.18 40.2452C103.195 39.3716 104.943 38.21 105.235 38.9372C105.528 39.6628 107.707 40.2452 106.836 38.9372C105.961 37.626 105.961 36.7572 106.543 36.466C107.128 36.1716 107.419 34.7188 107.419 34.7188C107.419 34.7188 105.528 34.4261 105.235 33.5557C104.942 32.6852 103.776 31.8132 103.776 31.0845C103.776 30.3557 102.759 30.6469 101.887 31.3757C101.011 32.1044 99.4125 30.5037 97.5195 31.5236C95.6281 32.5404 95.1903 33.7005 94.3178 33.5572C93.4438 33.4093 93.5887 34.286 92.8611 35.0116C92.1351 35.7404 91.5508 36.6139 91.1162 36.6139C90.6815 36.6139 89.2232 37.3427 89.2232 37.3427C89.2232 37.3427 90.2437 39.5227 89.661 40.5395C89.0783 41.5595 87.62 40.5395 86.0231 40.9786C84.4199 41.4146 83.6923 40.3947 82.5253 40.6843C81.3631 40.9786 80.6355 39.9555 80.0544 40.1035C79.4717 40.2483 78.5977 38.7924 78.889 37.6292C79.1819 36.4691 78.3063 34.8668 77.7252 35.7404C77.1409 36.6139 76.2716 36.1748 76.2716 37.4859C76.2716 38.7924 76.9992 40.3947 76.1251 41.2667C75.2511 42.1387 70.5927 42.5778 69.7218 41.8491C68.8446 41.1203 65.0634 40.6843 64.9169 39.9555C64.772 39.2284 63.6066 37.9219 62.879 37.9219C62.1499 37.9219 59.9656 38.9387 59.386 38.5027C58.8033 38.0667 57.345 36.902 56.3292 36.7603C55.3087 36.6124 53.7071 35.8836 53.5622 35.3028C53.4157 34.7204 51.0881 34.4277 50.6503 33.8468C50.2141 33.2645 48.7589 33.1228 48.7589 32.3941C48.7589 31.6669 49.3416 30.5037 49.3416 29.6285C49.3416 28.7502 51.0865 27.8861 51.0865 27.3006C51.0865 26.7198 49.4881 25.6967 49.4881 25.6967C49.4881 25.6967 48.4675 23.8063 47.3022 23.8063C46.1368 23.8063 45.2627 21.7727 44.2469 21.6279C43.228 21.4815 43.5178 19.4447 42.9367 18.7159C42.3571 17.9872 42.7918 16.2447 43.8107 17.1152C44.8281 17.9872 46.7226 17.1152 45.9935 15.8056C45.2643 14.496 44.2469 13.3956 44.2469 12.6669C44.2469 11.9365 49.4893 10.9026 49.4893 7.49937C49.4893 4.49838 45.4893 2.9983 44.4893 3C43.2628 3.00272 40.1681 4.89618 40.1681 4.89618L38.9893 5.49937C38.9893 5.49937 37.8404 7.37051 37.2577 7.66013C36.6766 7.95132 34.6372 8.38732 33.6182 9.11294C32.6009 9.84013 29.6921 8.09613 28.0905 8.09613C26.4857 8.09613 25.4652 9.69689 26.1944 10.1345C26.9251 10.5689 26.7787 13.6225 26.7787 13.6225C26.7787 13.6225 27.6527 17.4064 28.9614 17.1167C30.2717 16.8271 31.8749 18.4247 30.7079 18.7175C29.5441 19.0087 28.9614 20.3183 28.8165 21.4831C28.6701 22.6447 28.9614 24.0975 28.0905 24.2454C27.2165 24.3902 26.3424 24.6814 26.3424 26.2822C26.3424 27.8861 24.451 27.4485 24.1597 28.0262C23.8668 28.6101 23.1407 31.5221 22.7014 31.9565C22.2667 32.3925 19.7895 32.5389 19.6446 33.8484C19.4981 35.1548 18.339 36.7587 17.6099 36.6108C16.8807 36.466 15.5688 35.882 15.1342 36.7587C14.6964 37.6307 12.8066 36.03 12.3703 36.466C11.9325 36.9004 9.60172 38.7939 9.60172 39.954C9.60172 41.1187 12.079 41.1187 11.9309 42.5763C11.786 44.0306 12.8066 45.6298 13.5357 46.3586C14.2601 47.0858 15.424 48.8298 14.8413 49.7049C14.2601 50.5753 13.3892 50.7186 12.079 50.429C10.7655 50.1362 10.9104 51.0098 8.58279 50.5753C6.25358 50.1378 6.1087 51.8849 5.23465 52.9033C5.18268 52.9678 5.09922 53.0576 5 53.1725C6.09925 54.0413 6.56226 55.5901 8.39066 56.2953C10.5167 57.1122 12.4254 54.9306 12.4254 56.5109C12.4254 58.0928 7.40795 57.767 7.30244 58.2549C7.19535 58.7476 12.4758 65.1207 15.1499 64.6312C17.8177 64.1385 19.7816 61.2534 19.0178 60.8142C18.2555 60.383 19.454 58.5823 20.1658 58.9113C20.8714 59.2371 20.2729 62.0687 21.0903 62.7219C21.9108 63.3736 21.6368 64.5745 21.0903 66.1013C20.547 67.6265 21.6368 70.6171 21.7958 72.3108C21.9612 73.9965 23.1061 76.4488 23.4888 78.9546C23.8699 81.4636 25.4495 86.0377 26.9251 88.8158C28.396 91.5955 29.5362 97.0447 30.5158 98.3495C31.4985 99.6559 34.0088 103.63 34.0088 106.084C34.0088 108.535 36.6798 111.963 37.6058 112.619C38.5318 113.273 40.5476 111.856 41.039 110.332C41.5319 108.806 44.3099 108.204 44.4721 106.898C44.6375 105.593 44.9037 104.559 45.8879 104.392C46.8706 104.228 46.8706 103.196 46.8706 101.779C46.8706 100.364 46.9793 98.3479 47.962 97.095C48.9384 95.8405 49.1038 92.4627 48.5069 91.1012C47.9053 89.7429 48.2329 87.8352 48.7778 86.4705C49.3211 85.1121 49.1038 83.5287 50.1416 83.4201C51.1763 83.3131 52.7008 82.3828 53.7906 80.9158C54.8835 79.4426 58.208 77.4263 59.4049 76.4473C60.6034 75.4666 64.257 72.2525 65.3468 70.455C66.4335 68.6544 69.5391 68.0594 70.958 66.5861C72.377 65.1176 71.8289 64.3558 72.1014 62.7739C72.3786 61.1952 76.9535 60.5388 78.6969 60.5388C79.0544 60.5388 79.3457 60.5042 79.6134 60.4507C79.593 57.9149 78.8276 54.9023 78.3205 53.7108Z"/>
</mask>
<path fill-rule="evenodd" clip-rule="evenodd" d="M78.3205 53.7108C77.6606 52.1667 77.2149 49.2941 77.4354 48.1923C77.6575 47.0921 78.9803 47.9704 79.4229 46.6514C79.8654 45.3229 75.6684 45.3229 76.9929 43.5569C78.3205 41.794 78.3205 43.5569 80.0843 43.5569C81.8545 43.5569 82.5127 44.4415 82.5127 45.5448C82.5127 46.6514 84.2845 47.3109 84.2845 47.3109C84.2845 47.3109 87.1523 47.0921 88.4815 47.0921C89.8075 47.0921 91.1288 47.0921 91.1288 47.9719C91.1288 48.8565 89.5854 51.7275 88.2594 51.7275C86.9334 51.7275 86.9334 55.4784 88.0405 55.6956C89.1429 55.9191 90.0248 52.8293 90.6862 52.8293C91.1634 52.8293 91.5272 56.3331 92.1776 59.9438C92.3493 59.7408 92.5288 59.5944 92.7162 59.5944C93.5903 59.5944 93.1525 56.5392 93.7367 55.6641C94.3178 54.7905 94.0281 52.0297 94.4659 52.0297C94.9005 52.0297 97.5211 52.9017 97.3762 52.1761C97.2298 51.4473 98.9779 48.973 98.6865 47.665C98.392 46.3586 99.7054 44.7547 99.7054 43.1571C99.7054 41.5563 101.161 41.1187 102.18 40.2452C103.195 39.3716 104.943 38.21 105.235 38.9372C105.528 39.6628 107.707 40.2452 106.836 38.9372C105.961 37.626 105.961 36.7572 106.543 36.466C107.128 36.1716 107.419 34.7188 107.419 34.7188C107.419 34.7188 105.528 34.4261 105.235 33.5557C104.942 32.6852 103.776 31.8132 103.776 31.0845C103.776 30.3557 102.759 30.6469 101.887 31.3757C101.011 32.1044 99.4125 30.5037 97.5195 31.5236C95.6281 32.5404 95.1903 33.7005 94.3178 33.5572C93.4438 33.4093 93.5887 34.286 92.8611 35.0116C92.1351 35.7404 91.5508 36.6139 91.1162 36.6139C90.6815 36.6139 89.2232 37.3427 89.2232 37.3427C89.2232 37.3427 90.2437 39.5227 89.661 40.5395C89.0783 41.5595 87.62 40.5395 86.0231 40.9786C84.4199 41.4146 83.6923 40.3947 82.5253 40.6843C81.3631 40.9786 80.6355 39.9555 80.0544 40.1035C79.4717 40.2483 78.5977 38.7924 78.889 37.6292C79.1819 36.4691 78.3063 34.8668 77.7252 35.7404C77.1409 36.6139 76.2716 36.1748 76.2716 37.4859C76.2716 38.7924 76.9992 40.3947 76.1251 41.2667C75.2511 42.1387 70.5927 42.5778 69.7218 41.8491C68.8446 41.1203 65.0634 40.6843 64.9169 39.9555C64.772 39.2284 63.6066 37.9219 62.879 37.9219C62.1499 37.9219 59.9656 38.9387 59.386 38.5027C58.8033 38.0667 57.345 36.902 56.3292 36.7603C55.3087 36.6124 53.7071 35.8836 53.5622 35.3028C53.4157 34.7204 51.0881 34.4277 50.6503 33.8468C50.2141 33.2645 48.7589 33.1228 48.7589 32.3941C48.7589 31.6669 49.3416 30.5037 49.3416 29.6285C49.3416 28.7502 51.0865 27.8861 51.0865 27.3006C51.0865 26.7198 49.4881 25.6967 49.4881 25.6967C49.4881 25.6967 48.4675 23.8063 47.3022 23.8063C46.1368 23.8063 45.2627 21.7727 44.2469 21.6279C43.228 21.4815 43.5178 19.4447 42.9367 18.7159C42.3571 17.9872 42.7918 16.2447 43.8107 17.1152C44.8281 17.9872 46.7226 17.1152 45.9935 15.8056C45.2643 14.496 44.2469 13.3956 44.2469 12.6669C44.2469 11.9365 49.4893 10.9026 49.4893 7.49937C49.4893 4.49838 45.4893 2.9983 44.4893 3C43.2628 3.00272 40.1681 4.89618 40.1681 4.89618L38.9893 5.49937C38.9893 5.49937 37.8404 7.37051 37.2577 7.66013C36.6766 7.95132 34.6372 8.38732 33.6182 9.11294C32.6009 9.84013 29.6921 8.09613 28.0905 8.09613C26.4857 8.09613 25.4652 9.69689 26.1944 10.1345C26.9251 10.5689 26.7787 13.6225 26.7787 13.6225C26.7787 13.6225 27.6527 17.4064 28.9614 17.1167C30.2717 16.8271 31.8749 18.4247 30.7079 18.7175C29.5441 19.0087 28.9614 20.3183 28.8165 21.4831C28.6701 22.6447 28.9614 24.0975 28.0905 24.2454C27.2165 24.3902 26.3424 24.6814 26.3424 26.2822C26.3424 27.8861 24.451 27.4485 24.1597 28.0262C23.8668 28.6101 23.1407 31.5221 22.7014 31.9565C22.2667 32.3925 19.7895 32.5389 19.6446 33.8484C19.4981 35.1548 18.339 36.7587 17.6099 36.6108C16.8807 36.466 15.5688 35.882 15.1342 36.7587C14.6964 37.6307 12.8066 36.03 12.3703 36.466C11.9325 36.9004 9.60172 38.7939 9.60172 39.954C9.60172 41.1187 12.079 41.1187 11.9309 42.5763C11.786 44.0306 12.8066 45.6298 13.5357 46.3586C14.2601 47.0858 15.424 48.8298 14.8413 49.7049C14.2601 50.5753 13.3892 50.7186 12.079 50.429C10.7655 50.1362 10.9104 51.0098 8.58279 50.5753C6.25358 50.1378 6.1087 51.8849 5.23465 52.9033C5.18268 52.9678 5.09922 53.0576 5 53.1725C6.09925 54.0413 6.56226 55.5901 8.39066 56.2953C10.5167 57.1122 12.4254 54.9306 12.4254 56.5109C12.4254 58.0928 7.40795 57.767 7.30244 58.2549C7.19535 58.7476 12.4758 65.1207 15.1499 64.6312C17.8177 64.1385 19.7816 61.2534 19.0178 60.8142C18.2555 60.383 19.454 58.5823 20.1658 58.9113C20.8714 59.2371 20.2729 62.0687 21.0903 62.7219C21.9108 63.3736 21.6368 64.5745 21.0903 66.1013C20.547 67.6265 21.6368 70.6171 21.7958 72.3108C21.9612 73.9965 23.1061 76.4488 23.4888 78.9546C23.8699 81.4636 25.4495 86.0377 26.9251 88.8158C28.396 91.5955 29.5362 97.0447 30.5158 98.3495C31.4985 99.6559 34.0088 103.63 34.0088 106.084C34.0088 108.535 36.6798 111.963 37.6058 112.619C38.5318 113.273 40.5476 111.856 41.039 110.332C41.5319 108.806 44.3099 108.204 44.4721 106.898C44.6375 105.593 44.9037 104.559 45.8879 104.392C46.8706 104.228 46.8706 103.196 46.8706 101.779C46.8706 100.364 46.9793 98.3479 47.962 97.095C48.9384 95.8405 49.1038 92.4627 48.5069 91.1012C47.9053 89.7429 48.2329 87.8352 48.7778 86.4705C49.3211 85.1121 49.1038 83.5287 50.1416 83.4201C51.1763 83.3131 52.7008 82.3828 53.7906 80.9158C54.8835 79.4426 58.208 77.4263 59.4049 76.4473C60.6034 75.4666 64.257 72.2525 65.3468 70.455C66.4335 68.6544 69.5391 68.0594 70.958 66.5861C72.377 65.1176 71.8289 64.3558 72.1014 62.7739C72.3786 61.1952 76.9535 60.5388 78.6969 60.5388C79.0544 60.5388 79.3457 60.5042 79.6134 60.4507C79.593 57.9149 78.8276 54.9023 78.3205 53.7108Z" fill="#158AFE"/>
<path fill-rule="evenodd" clip-rule="evenodd" d="M78.3205 53.7108C77.6606 52.1667 77.2149 49.2941 77.4354 48.1923C77.6575 47.0921 78.9803 47.9704 79.4229 46.6514C79.8654 45.3229 75.6684 45.3229 76.9929 43.5569C78.3205 41.794 78.3205 43.5569 80.0843 43.5569C81.8545 43.5569 82.5127 44.4415 82.5127 45.5448C82.5127 46.6514 84.2845 47.3109 84.2845 47.3109C84.2845 47.3109 87.1523 47.0921 88.4815 47.0921C89.8075 47.0921 91.1288 47.0921 91.1288 47.9719C91.1288 48.8565 89.5854 51.7275 88.2594 51.7275C86.9334 51.7275 86.9334 55.4784 88.0405 55.6956C89.1429 55.9191 90.0248 52.8293 90.6862 52.8293C91.1634 52.8293 91.5272 56.3331 92.1776 59.9438C92.3493 59.7408 92.5288 59.5944 92.7162 59.5944C93.5903 59.5944 93.1525 56.5392 93.7367 55.6641C94.3178 54.7905 94.0281 52.0297 94.4659 52.0297C94.9005 52.0297 97.5211 52.9017 97.3762 52.1761C97.2298 51.4473 98.9779 48.973 98.6865 47.665C98.392 46.3586 99.7054 44.7547 99.7054 43.1571C99.7054 41.5563 101.161 41.1187 102.18 40.2452C103.195 39.3716 104.943 38.21 105.235 38.9372C105.528 39.6628 107.707 40.2452 106.836 38.9372C105.961 37.626 105.961 36.7572 106.543 36.466C107.128 36.1716 107.419 34.7188 107.419 34.7188C107.419 34.7188 105.528 34.4261 105.235 33.5557C104.942 32.6852 103.776 31.8132 103.776 31.0845C103.776 30.3557 102.759 30.6469 101.887 31.3757C101.011 32.1044 99.4125 30.5037 97.5195 31.5236C95.6281 32.5404 95.1903 33.7005 94.3178 33.5572C93.4438 33.4093 93.5887 34.286 92.8611 35.0116C92.1351 35.7404 91.5508 36.6139 91.1162 36.6139C90.6815 36.6139 89.2232 37.3427 89.2232 37.3427C89.2232 37.3427 90.2437 39.5227 89.661 40.5395C89.0783 41.5595 87.62 40.5395 86.0231 40.9786C84.4199 41.4146 83.6923 40.3947 82.5253 40.6843C81.3631 40.9786 80.6355 39.9555 80.0544 40.1035C79.4717 40.2483 78.5977 38.7924 78.889 37.6292C79.1819 36.4691 78.3063 34.8668 77.7252 35.7404C77.1409 36.6139 76.2716 36.1748 76.2716 37.4859C76.2716 38.7924 76.9992 40.3947 76.1251 41.2667C75.2511 42.1387 70.5927 42.5778 69.7218 41.8491C68.8446 41.1203 65.0634 40.6843 64.9169 39.9555C64.772 39.2284 63.6066 37.9219 62.879 37.9219C62.1499 37.9219 59.9656 38.9387 59.386 38.5027C58.8033 38.0667 57.345 36.902 56.3292 36.7603C55.3087 36.6124 53.7071 35.8836 53.5622 35.3028C53.4157 34.7204 51.0881 34.4277 50.6503 33.8468C50.2141 33.2645 48.7589 33.1228 48.7589 32.3941C48.7589 31.6669 49.3416 30.5037 49.3416 29.6285C49.3416 28.7502 51.0865 27.8861 51.0865 27.3006C51.0865 26.7198 49.4881 25.6967 49.4881 25.6967C49.4881 25.6967 48.4675 23.8063 47.3022 23.8063C46.1368 23.8063 45.2627 21.7727 44.2469 21.6279C43.228 21.4815 43.5178 19.4447 42.9367 18.7159C42.3571 17.9872 42.7918 16.2447 43.8107 17.1152C44.8281 17.9872 46.7226 17.1152 45.9935 15.8056C45.2643 14.496 44.2469 13.3956 44.2469 12.6669C44.2469 11.9365 49.4893 10.9026 49.4893 7.49937C49.4893 4.49838 45.4893 2.9983 44.4893 3C43.2628 3.00272 40.1681 4.89618 40.1681 4.89618L38.9893 5.49937C38.9893 5.49937 37.8404 7.37051 37.2577 7.66013C36.6766 7.95132 34.6372 8.38732 33.6182 9.11294C32.6009 9.84013 29.6921 8.09613 28.0905 8.09613C26.4857 8.09613 25.4652 9.69689 26.1944 10.1345C26.9251 10.5689 26.7787 13.6225 26.7787 13.6225C26.7787 13.6225 27.6527 17.4064 28.9614 17.1167C30.2717 16.8271 31.8749 18.4247 30.7079 18.7175C29.5441 19.0087 28.9614 20.3183 28.8165 21.4831C28.6701 22.6447 28.9614 24.0975 28.0905 24.2454C27.2165 24.3902 26.3424 24.6814 26.3424 26.2822C26.3424 27.8861 24.451 27.4485 24.1597 28.0262C23.8668 28.6101 23.1407 31.5221 22.7014 31.9565C22.2667 32.3925 19.7895 32.5389 19.6446 33.8484C19.4981 35.1548 18.339 36.7587 17.6099 36.6108C16.8807 36.466 15.5688 35.882 15.1342 36.7587C14.6964 37.6307 12.8066 36.03 12.3703 36.466C11.9325 36.9004 9.60172 38.7939 9.60172 39.954C9.60172 41.1187 12.079 41.1187 11.9309 42.5763C11.786 44.0306 12.8066 45.6298 13.5357 46.3586C14.2601 47.0858 15.424 48.8298 14.8413 49.7049C14.2601 50.5753 13.3892 50.7186 12.079 50.429C10.7655 50.1362 10.9104 51.0098 8.58279 50.5753C6.25358 50.1378 6.1087 51.8849 5.23465 52.9033C5.18268 52.9678 5.09922 53.0576 5 53.1725C6.09925 54.0413 6.56226 55.5901 8.39066 56.2953C10.5167 57.1122 12.4254 54.9306 12.4254 56.5109C12.4254 58.0928 7.40795 57.767 7.30244 58.2549C7.19535 58.7476 12.4758 65.1207 15.1499 64.6312C17.8177 64.1385 19.7816 61.2534 19.0178 60.8142C18.2555 60.383 19.454 58.5823 20.1658 58.9113C20.8714 59.2371 20.2729 62.0687 21.0903 62.7219C21.9108 63.3736 21.6368 64.5745 21.0903 66.1013C20.547 67.6265 21.6368 70.6171 21.7958 72.3108C21.9612 73.9965 23.1061 76.4488 23.4888 78.9546C23.8699 81.4636 25.4495 86.0377 26.9251 88.8158C28.396 91.5955 29.5362 97.0447 30.5158 98.3495C31.4985 99.6559 34.0088 103.63 34.0088 106.084C34.0088 108.535 36.6798 111.963 37.6058 112.619C38.5318 113.273 40.5476 111.856 41.039 110.332C41.5319 108.806 44.3099 108.204 44.4721 106.898C44.6375 105.593 44.9037 104.559 45.8879 104.392C46.8706 104.228 46.8706 103.196 46.8706 101.779C46.8706 100.364 46.9793 98.3479 47.962 97.095C48.9384 95.8405 49.1038 92.4627 48.5069 91.1012C47.9053 89.7429 48.2329 87.8352 48.7778 86.4705C49.3211 85.1121 49.1038 83.5287 50.1416 83.4201C51.1763 83.3131 52.7008 82.3828 53.7906 80.9158C54.8835 79.4426 58.208 77.4263 59.4049 76.4473C60.6034 75.4666 64.257 72.2525 65.3468 70.455C66.4335 68.6544 69.5391 68.0594 70.958 66.5861C72.377 65.1176 71.8289 64.3558 72.1014 62.7739C72.3786 61.1952 76.9535 60.5388 78.6969 60.5388C79.0544 60.5388 79.3457 60.5042 79.6134 60.4507C79.593 57.9149 78.8276 54.9023 78.3205 53.7108Z" stroke="white" stroke-width="2.2" mask="url(#path-1-inside-1_709_7034)"/>
</g>
<defs>
<filter id="filter0_d_709_7034" x="0.366012" y="0.683006" width="111.687" height="119.051" filterUnits="userSpaceOnUse" color-interpolation-filters="sRGB">
<feFlood flood-opacity="0" result="BackgroundImageFix"/>
<feColorMatrix in="SourceAlpha" type="matrix" values="0 0 0 0 0 0 0 0 0 0 0 0 0 0 0 0 0 0 127 0" result="hardAlpha"/>
<feOffset dy="2.31699"/>
<feGaussianBlur stdDeviation="2.31699"/>
<feColorMatrix type="matrix" values="0 0 0 0 0 0 0 0 0 0 0 0 0 0 0 0 0 0 0.01 0"/>
<feBlend mode="normal" in2="BackgroundImageFix" result="effect1_dropShadow_709_7034"/>
<feBlend mode="normal" in="SourceGraphic" in2="effect1_dropShadow_709_7034" result="shape"/>
</filter>
</defs>
</svg>
