<svg width="32" height="37" viewBox="0 0 32 37" fill="none" xmlns="http://www.w3.org/2000/svg">
<path d="M26.4038 30.625L30.7107 28.097L22.9394 16.0655L19.4751 18.1253L26.3569 30.625H26.4038ZM10.4866 33.7616L14.8404 36.196L21.535 23.5559L18.0238 21.5896L10.5334 33.7616H10.4866ZM0 21.5896V26.5521L14.3723 25.9435L14.2786 21.9642L0 21.5428V21.5896ZM31.7407 15.41L31.6939 10.4476L17.3216 11.0562V15.0823L31.6939 15.41H31.7407ZM5.2433 6.28109L0.983118 8.8091L8.6608 20.8874L12.0783 18.8744L5.2433 6.28109ZM21.1136 3.28491L16.8066 0.803711L10.1589 13.4438L13.5764 15.4569L21.0668 3.28491H21.1136Z" fill="white"/>
</svg>
